<svg viewBox="0 0 512 512" version="1.1" xmlns="http://www.w3.org/2000/svg" xmlns:xlink="http://www.w3.org/1999/xlink">
    <defs>
        <clipPath id="clip0_1_1">
            <rect width="512" height="512" fill="white"/>
        </clipPath>
    </defs>
    <g clip-path="url(#clip0_1_1)">
        <path d="M410.613,223.111 C406.879,223.111 403.499,221.731 400.835,219.066 C398.17,216.402 396.79,213.023 396.79,209.288 C396.79,205.554 398.17,202.174 400.835,199.51 C403.499,196.845 406.879,195.466 410.613,195.466 C414.348,195.466 417.727,196.845 420.392,199.51 C423.056,202.174 424.436,205.554 424.436,209.288 C424.436,213.023 423.056,216.402 420.392,219.066 C417.727,221.731 414.348,223.111 410.613,223.111 Z" fill="#007bff"/>
        <path d="M396.79,209.288 C396.79,201.644 402.97,195.466 410.613,195.466 C418.257,195.466 424.436,201.644 424.436,209.288 C424.436,216.932 418.257,223.111 410.613,223.111 C402.97,223.111 396.79,216.932 396.79,209.288 Z M400.835,199.51 L400.835,199.51 Z" fill="#007bff"/>
        <path d="M256,0 C114.615,0 0,114.615 0,256 C0,397.385 114.615,512 256,512 C397.385,512 512,397.385 512,256 C512,114.615 397.385,0 256,0 Z M393.18,349.566 C393.18,349.566 388.948,353.799 388.948,353.799 L363.385,328.236 L388.948,302.673 L393.18,306.904 C393.18,306.904 374.808,325.275 374.808,325.275 C374.808,325.275 393.18,349.566 393.18,349.566 Z M363.385,328.236 L363.385,328.236 Z" fill="#007bff"/>
    </g>
</svg>
