<?xml version="1.0" encoding="UTF-8" standalone="no"?>
<svg
   viewBox="0 0 1000 1000"
   width="100%"
   height="100%"
   preserveAspectRatio="xMidYMid meet"
   version="1.1"
   id="svg7"
   sodipodi:docname="new_logo.svg"
   inkscape:version="1.4.2 (ebf0e940, 2025-05-08)"
   xmlns:inkscape="http://www.inkscape.org/namespaces/inkscape"
   xmlns:sodipodi="http://sodipodi.sourceforge.net/DTD/sodipodi-0.dtd"
   xmlns="http://www.w3.org/2000/svg"
   xmlns:svg="http://www.w3.org/2000/svg">
  <defs
     id="defs7" />
  <sodipodi:namedview
     id="namedview7"
     pagecolor="#ffffff"
     bordercolor="#000000"
     borderopacity="0.25"
     inkscape:showpageshadow="2"
     inkscape:pageopacity="0.0"
     inkscape:pagecheckerboard="0"
     inkscape:deskcolor="#d1d1d1"
     inkscape:zoom="0.832"
     inkscape:cx="499.39904"
     inkscape:cy="499.39904"
     inkscape:window-width="2384"
     inkscape:window-height="1302"
     inkscape:window-x="1066"
     inkscape:window-y="30"
     inkscape:window-maximized="0"
     inkscape:current-layer="svg7" />
  <g
     transform="matrix(1.927683,0,0,1.927683,-827.61411,-88.380996)"
     id="g7"
     style="fill:#6c63ff;fill-opacity:1">
    <g
       transform="matrix(0.1,0,0,-0.1,0,768)"
       fill="#2961c5"
       stroke="none"
       id="g6"
       style="fill:#6c63ff;fill-opacity:1">
      <path
         d="m 6883,7196 c -91,-18 -163,-41 -238,-79 -62,-31 -88,-47 -465,-289 -124,-79 -295,-189 -380,-243 -661,-420 -637,-403 -733,-505 -95,-100 -153,-197 -196,-325 -46,-138 -52,-219 -49,-645 l 3,-385 31,50 c 18,28 48,92 68,144 21,51 53,118 72,148 l 34,53 v 148 c 1,360 42,504 190,665 61,66 110,101 485,339 143,91 406,259 585,373 503,322 511,326 682,348 113,14 237,-6 342,-56 40,-19 304,-182 587,-362 283,-180 590,-376 684,-434 219,-137 322,-234 383,-361 81,-167 77,-109 77,-1150 0,-1040 2,-1003 -75,-1158 -70,-140 -164,-234 -337,-338 -104,-64 -288,-176 -291,-180 -8,-6 54,-109 82,-136 22,-22 35,-28 53,-23 47,11 415,250 484,313 130,120 225,278 272,454 l 22,83 v 980 980 l -23,85 c -49,188 -173,378 -315,484 -39,30 -252,169 -472,309 -220,140 -521,332 -670,427 -297,190 -390,239 -510,271 -103,26 -284,34 -382,15 z"
         id="path1"
         style="fill:#6c63ff;fill-opacity:1" />
      <path
         d="m 7560,6186 c -103,-29 -215,-114 -267,-204 -56,-95 -63,-142 -63,-413 v -249 h 118 117 l 78,78 c 42,42 77,82 77,88 0,5 -22,32 -50,59 l -50,49 -44,-43 c -52,-51 -89,-54 -94,-9 -2,21 7,38 37,70 l 39,43 -44,47 c -49,52 -51,59 -28,82 25,26 49,19 92,-28 l 40,-44 53,54 52,53 -57,64 c -62,71 -68,92 -32,108 30,14 67,-9 117,-72 l 32,-41 61,61 c 65,64 97,76 116,42 5,-11 10,-23 10,-26 0,-4 -28,-36 -62,-71 l -62,-65 54,-54 54,-55 46,45 c 47,46 67,54 88,33 21,-21 13,-43 -28,-83 -22,-21 -40,-44 -40,-49 0,-6 19,-29 41,-52 34,-35 40,-47 35,-68 -10,-41 -49,-34 -95,16 l -39,41 -56,-48 c -31,-27 -56,-51 -56,-55 0,-3 37,-42 83,-88 l 82,-82 h 118 117 v 235 c 0,135 -5,256 -11,287 -25,118 -118,247 -217,301 -99,54 -256,72 -362,43 z"
         id="path2"
         style="fill:#6c63ff;fill-opacity:1" />
      <path
         d="m 5945,5776 c -101,-45 -153,-223 -210,-726 -51,-450 -98,-720 -124,-720 -11,0 -40,102 -101,355 -56,228 -91,316 -145,363 -36,33 -89,48 -127,38 -71,-18 -118,-77 -179,-226 -16,-41 -42,-104 -57,-140 -19,-47 -43,-82 -87,-126 -72,-72 -138,-100 -269,-114 -124,-13 -155,-45 -102,-107 24,-28 25,-28 149,-28 h 125 l 5,-350 c 3,-319 6,-357 25,-433 59,-225 199,-421 392,-547 36,-24 214,-134 395,-246 338,-207 425,-261 765,-473 243,-152 271,-168 344,-195 96,-35 194,-52 308,-52 210,0 292,34 703,291 171,106 311,194 313,195 1,1 -14,19 -34,40 -20,21 -47,55 -60,76 -13,20 -28,40 -33,43 -10,7 -76,-32 -381,-224 -225,-142 -290,-175 -386,-195 -180,-38 -332,-3 -531,123 -43,27 -157,98 -253,158 -96,59 -285,176 -420,259 -135,84 -334,207 -444,275 -269,166 -364,260 -435,425 -52,124 -54,145 -59,560 l -4,390 40,50 c 56,72 84,124 137,262 25,68 51,125 56,129 14,8 44,-69 69,-176 88,-383 107,-447 160,-530 35,-55 75,-80 127,-80 97,0 158,88 201,290 21,100 32,174 88,625 35,288 61,445 74,445 18,0 82,-499 135,-1065 13,-127 57,-420 76,-493 38,-152 99,-232 177,-232 28,0 43,8 73,39 84,89 118,244 204,941 37,298 78,490 105,490 21,0 79,-183 105,-338 48,-279 207,-507 435,-622 43,-22 182,-73 185,-67 8,17 67,91 97,123 l 39,41 -50,7 c -62,8 -173,53 -241,96 -28,18 -79,64 -115,103 -92,99 -137,194 -179,383 -54,238 -92,339 -155,407 -74,82 -186,75 -252,-16 -67,-92 -99,-234 -159,-707 -57,-455 -83,-602 -100,-583 -19,20 -45,188 -85,558 -73,676 -87,793 -106,892 -27,143 -46,208 -77,265 -38,72 -91,98 -147,74 z"
         id="path3"
         style="fill:#6c63ff;fill-opacity:1" />
      <path
         d="m 7632,5707 -52,-53 55,-54 55,-54 50,49 c 27,27 50,54 50,60 0,10 -93,105 -102,105 -2,0 -27,-24 -56,-53 z"
         id="path4"
         style="fill:#6c63ff;fill-opacity:1" />
      <path
         d="m 7590,5325 -95,-95 h -132 -133 v -179 c 0,-202 12,-260 70,-351 187,-292 640,-274 796,32 44,86 54,149 54,330 v 168 h -133 -132 l -95,95 c -52,52 -97,95 -100,95 -3,0 -48,-43 -100,-95 z"
         id="path5"
         style="fill:#6c63ff;fill-opacity:1" />
      <path
         d="m 8398,5334 c -15,-8 -32,-23 -38,-34 -6,-11 -10,-99 -10,-213 0,-212 -8,-280 -46,-376 -71,-181 -185,-286 -428,-396 -218,-98 -312,-207 -470,-545 -37,-80 -115,-243 -174,-363 l -105,-217 -41,-10 c -288,-72 -436,-189 -436,-346 0,-89 29,-137 105,-177 49,-25 142,-27 198,-4 81,34 204,182 285,344 29,56 35,62 69,67 178,27 427,71 517,91 60,14 110,24 111,22 1,-1 7,-31 14,-67 38,-195 117,-355 231,-471 61,-62 95,-85 174,-125 86,-42 107,-49 160,-49 83,0 87,22 14,68 -194,125 -301,281 -367,537 -46,182 -50,165 48,216 100,52 169,106 177,140 13,50 -10,50 -113,2 -123,-58 -160,-70 -169,-56 -4,5 -9,121 -11,257 -3,135 -9,261 -15,279 -19,61 -92,87 -162,58 -65,-27 -99,-79 -228,-339 -69,-138 -136,-278 -149,-311 -26,-65 -35,-70 -122,-79 -43,-4 -57,-3 -54,6 16,36 216,459 262,553 101,207 175,280 361,363 250,109 405,261 492,481 43,108 54,198 56,438 l 1,214 -33,29 c -36,32 -63,36 -104,13 z M 7902,3628 c -2,-35 1,-119 6,-188 6,-69 9,-126 8,-127 -4,-5 -196,-34 -204,-31 -8,3 181,408 190,408 2,0 2,-28 0,-62 z m -882,-633 c 0,-17 -107,-148 -130,-160 -61,-31 -93,25 -44,76 41,43 174,107 174,84 z"
         id="path6"
         style="fill:#6c63ff;fill-opacity:1" />
    </g>
  </g>
</svg>
